<svg xmlns="http://www.w3.org/2000/svg" viewBox="0 0 120 120" width="100%" height="100%">
  <defs>
    <linearGradient id="lidarGlow" x1="0%" y1="0%" x2="100%" y2="100%">
      <stop offset="0%" stop-color="#10B981" />
      <stop offset="100%" stop-color="#06B6D4" />
    </linearGradient>
    <filter id="shadowRobot" x="-10%" y="-10%" width="120%" height="120%">
      <feDropShadow dx="0" dy="4" stdDeviation="4" flood-color="#000000" flood-opacity="0.15"/>
    </filter>
  </defs>
  
  <g stroke="#475569" stroke-width="2" stroke-linecap="round">
    <line x1="25" y1="25" x2="35" y2="35"/>
    <line x1="15" y1="35" x2="35" y2="35"/>
    <line x1="25" y1="45" x2="35" y2="35"/>
  </g>
  <g stroke="#475569" stroke-width="2" stroke-linecap="round">
    <line x1="95" y1="25" x2="85" y2="35"/>
    <line x1="105" y1="35" x2="85" y2="35"/>
    <line x1="95" y1="45" x2="85" y2="35"/>
  </g>

  <circle cx="60" cy="60" r="40" fill="#1E293B" filter="url(#shadowRobot)"/>
  
  <path d="M 20 60 A 40 40 0 0 1 100 60" fill="none" stroke="#0F172A" stroke-width="3"/>
  
  <circle cx="60" cy="55" r="12" fill="#334155"/>
  <circle cx="60" cy="55" r="8" fill="#0F172A"/>
  <circle cx="62" cy="55" r="3" fill="url(#lidarGlow)"/> <rect x="52" y="85" width="6" height="4" rx="1" fill="#475569"/>
  <rect x="62" y="85" width="6" height="4" rx="1" fill="#475569"/>
  
  <circle cx="60" cy="60" r="35" fill="none" stroke="#334155" stroke-width="1"/>
</svg>