<svg xmlns="http://www.w3.org/2000/svg" viewBox="0 0 120 120" width="120" height="120">
  <defs>
    <linearGradient id="screenGradLap" x1="0%" y1="0%" x2="100%" y2="100%">
      <stop offset="0%" stop-color="#8B5CF6" />
      <stop offset="100%" stop-color="#D946EF" />
    </linearGradient>
    <filter id="shadowLap" x="-10%" y="-10%" width="120%" height="120%">
      <feDropShadow dx="0" dy="4" stdDeviation="4" flood-color="#000000" flood-opacity="0.15"/>
    </filter>
  </defs>
  <rect x="20" y="30" width="80" height="50" rx="4" fill="#1E293B" filter="url(#shadowLap)"/>
  <rect x="23" y="33" width="74" height="44" rx="2" fill="url(#screenGradLap)"/>
  <circle cx="60" cy="31.5" r="1" fill="#94A3B8"/>
  <path d="M 12 80 L 108 80 A 4 4 0 0 1 112 84 L 112 85 A 3 3 0 0 1 109 88 L 11 88 A 3 3 0 0 1 8 85 L 8 84 A 4 4 0 0 1 12 80 Z" fill="#334155" filter="url(#shadowLap)"/>
  <path d="M 50 80 L 70 80 L 70 82 L 50 82 Z" fill="#1E293B"/>
  <rect x="35" y="55" width="50" height="12" rx="2" fill="#ffffff" fill-opacity="0.15"/>
</svg>